<svg width="34" height="34" viewBox="0 0 34 34" xmlns="http://www.w3.org/2000/svg">
  <defs>
    <linearGradient id="bgGradient" x1="0%" y1="0%" x2="100%" y2="100%">
      <stop offset="0%" stop-color="#3B82F6"/>
      <stop offset="100%" stop-color="#1E3A8A"/>
    </linearGradient>
  </defs>

  <!-- Background -->
  <rect
    x="0"
    y="0"
    width="34"
    height="34"
    rx="10"
    fill="url(#bgGradient)"
  />

  <!-- Icon -->
  <g transform="translate(8,8) scale(0.75)">
    <path
      d="M14 16H9m10 0h3v-3.15a1 1 0 0 0-.84-.99L16 11l-2.7-3.6a1 1 0 0 0-.8-.4H5.24a2 2 0 0 0-1.8 1.1l-.8 1.63A6 6 0 0 0 2 12.42V16h2"
      fill="none"
      stroke="white"
      stroke-width="2.5"
      stroke-linecap="round"
      stroke-linejoin="round"
    />
    <circle
      cx="6.5"
      cy="16.5"
      r="2.5"
      fill="none"
      stroke="white"
      stroke-width="2.5"
    />
    <circle
      cx="16.5"
      cy="16.5"
      r="2.5"
      fill="none"
      stroke="white"
      stroke-width="2.5"
    />
  </g>
</svg>